<svg width="3731" height="1622" xmlns="http://www.w3.org/2000/svg" xmlns:xlink="http://www.w3.org/1999/xlink" xml:space="preserve" overflow="hidden"><g transform="translate(-77 -591)"><g><g><g><g><path d="M2866.46 894 3428.54 894C3463.04 894 3491 921.963 3491 956.458L3491 1518.54C3491 1553.04 3463.04 1581 3428.54 1581L2866.46 1581C2831.96 1581 2804 1553.04 2804 1518.54L2804 956.458C2804 921.963 2831.96 894 2866.46 894Z" fill="#4C4F6E" fill-rule="nonzero" fill-opacity="1"/><path d="M2866.46 894 3147.5 894C3182 894 3209.96 921.963 3209.96 956.458L3209.96 1518.54C3209.96 1553.04 3182 1581 3147.5 1581L2866.46 1581C2831.96 1581 2804 1553.04 2804 1518.54L2804 956.458C2804 921.963 2831.96 894 2866.46 894Z" fill="#4C4F6E" fill-rule="nonzero" fill-opacity="1"/><path d="M2866.46 894 3147.5 894C3182 894 3209.96 921.963 3209.96 956.458L3209.96 1518.54C3209.96 1553.04 3182 1581 3147.5 1581L2866.46 1581C2831.96 1581 2804 1553.04 2804 1518.54L2804 956.458C2804 921.963 2831.96 894 2866.46 894Z" fill="#7C7F95" fill-rule="nonzero" fill-opacity="1"/><path d="M3235.93 894.236C3218.67 894.253 3204.69 908.259 3204.71 925.52 3204.71 929.017 3205.3 932.488 3206.45 935.789L3206.51 935.934 3206.51 935.95 3206.53 936.009 3206.54 936.031 3206.57 936.111 3206.59 936.175 3206.69 936.481 3206.72 936.557 3206.72 936.557 3206.87 937.013C3208.02 940.528 3208.85 944.13 3209.36 947.785L3209.37 947.865 3209.37 947.871 3209.38 947.951 3209.43 948.279 3209.43 948.354 3209.44 948.364 3209.44 948.44 3209.45 948.45 3209.5 948.847 3209.5 948.858 3209.51 948.928 3209.51 948.939C3209.53 949.073 3209.54 949.207 3209.56 949.347L3209.56 949.422 3209.56 949.438 3209.57 949.513 3209.61 949.835 3209.61 949.84 3209.61 949.915 3209.62 949.932 3209.63 950.007 3209.66 950.329 3209.66 950.339 3209.67 950.404 3209.67 950.436 3209.67 950.49 3209.68 950.517 3209.68 950.602 3209.71 950.817 3209.71 950.892 3209.72 950.924 3209.72 951.021 3209.73 951.075 3209.73 951.118 3209.74 951.161 3209.74 951.182 3209.75 951.306 3209.75 951.391 3209.76 951.429 3209.76 951.52 3209.77 951.574 3209.77 951.66 3209.78 951.697 3209.78 951.794 3209.79 951.832 3209.79 951.885 3209.79 951.928 3209.8 951.976 3209.8 952.019 3209.8 952.073 3209.81 952.111 3209.81 952.159 3209.81 952.202 3209.82 952.282 3209.82 952.336 3209.82 952.379 3209.83 952.433 3209.83 952.476 3209.83 952.519 3209.83 952.572 3209.84 952.615 3209.84 952.658 3209.85 952.717 3209.85 952.749 3209.85 952.835 3209.86 952.884 3209.86 952.926 3209.86 952.98 3209.86 953.023 3209.87 953.066 3209.87 953.12 3209.87 953.157 3209.87 953.211 3209.88 953.254 3209.88 953.34 3209.88 953.431 3209.89 953.474 3209.89 953.522 3209.89 953.57 3209.89 953.656 3209.9 953.721 3209.9 953.753 3209.9 953.833 3209.9 954.027 3209.92 954.07 3209.92 954.365 3209.93 954.44 3209.93 954.665 3209.94 954.719 3209.94 955.073 3209.95 955.127 3209.95 955.68 3209.96 955.739 3209.96 1519.27 3209.95 1519.36 3209.95 1519.57 3209.95 1519.66 3209.95 1519.88 3209.94 1520.07 3209.94 1520.08 3209.94 1520.15 3209.94 1520.28 3209.93 1520.37 3209.93 1520.48 3209.93 1520.56 3209.93 1520.58 3209.92 1520.76 3209.92 1520.78 3209.92 1520.87 3209.92 1520.88 3209.91 1520.97 3209.9 1521.17 3209.9 1521.18 3209.9 1521.27 3209.9 1521.27 3209.89 1521.47 3209.89 1521.47 3209.88 1521.57 3209.88 1521.58C3209.88 1521.67 3209.88 1521.77 3209.87 1521.86L3209.87 1521.87C3209.59 1527.28 3208.6 1532.63 3206.94 1537.79 3201.63 1554.2 3210.62 1571.81 3227.02 1577.12 3243.43 1582.44 3261.04 1573.45 3266.36 1557.04L3266.36 1557C3270.38 1544.58 3272.42 1531.61 3272.41 1518.56L3272.41 956.458C3272.42 942.389 3270.05 928.419 3265.4 915.141 3261.01 902.622 3249.2 894.24 3235.93 894.236Z" fill="#2C2F53" fill-rule="nonzero" fill-opacity="1"/><path d="M3178.73 956.458 3178.73 1518.54C3178.73 1535.79 3164.75 1549.77 3147.51 1549.77 3147.5 1549.77 3147.5 1549.77 3147.5 1549.77L2866.45 1549.77C2849.21 1549.77 2835.23 1535.79 2835.23 1518.55 2835.23 1518.55 2835.23 1518.54 2835.23 1518.54L2835.23 956.458C2835.22 939.212 2849.2 925.229 2866.45 925.226 2866.45 925.226 2866.45 925.226 2866.45 925.226L3147.5 925.226C3164.75 925.226 3178.73 939.207 3178.73 956.453 3178.73 956.454 3178.73 956.456 3178.73 956.458Z" fill="#4C4F6E" fill-rule="nonzero" fill-opacity="1"/><path d="M3147.5 1050.13 2866.46 1050.13C2849.21 1050.13 2835.23 1036.16 2835.23 1018.91 2835.23 1018.91 2835.23 1018.91 2835.23 1018.91L2835.23 956.458C2835.22 939.212 2849.2 925.229 2866.45 925.226 2866.45 925.226 2866.45 925.226 2866.46 925.226L3147.5 925.226C3164.75 925.226 3178.73 939.207 3178.73 956.453 3178.73 956.454 3178.73 956.456 3178.73 956.458L3178.73 1018.91C3178.73 1036.15 3164.75 1050.13 3147.51 1050.14 3147.5 1050.14 3147.5 1050.14 3147.5 1050.14Z" fill="#2C2F53" fill-rule="nonzero" fill-opacity="1"/><path d="M2866.46 1050.13 3147.5 1050.13C3164.75 1050.13 3178.73 1064.11 3178.73 1081.36 3178.73 1081.36 3178.73 1081.36 3178.73 1081.37L3178.73 1143.82C3178.72 1161.06 3164.74 1175.04 3147.5 1175.04L2866.46 1175.04C2849.21 1175.05 2835.23 1161.07 2835.23 1143.82L2835.23 1081.36C2835.23 1064.12 2849.21 1050.14 2866.45 1050.14 2866.45 1050.14 2866.46 1050.14 2866.46 1050.14Z" fill="#2C2F53" fill-rule="nonzero" fill-opacity="1"/><path d="M2866.46 1175.04 3147.5 1175.04C3164.75 1175.05 3178.73 1189.03 3178.73 1206.27L3178.73 1268.73C3178.73 1285.97 3164.75 1299.96 3147.5 1299.96L2866.46 1299.96C2849.21 1299.96 2835.23 1285.98 2835.23 1268.74 2835.23 1268.73 2835.23 1268.73 2835.23 1268.73L2835.23 1206.27C2835.22 1189.03 2849.2 1175.05 2866.45 1175.04 2866.45 1175.04 2866.45 1175.04 2866.46 1175.04Z" fill="#2C2F53" fill-rule="nonzero" fill-opacity="1"/><path d="M2913.29 1206.27 3100.66 1206.27C3109.28 1206.5 3116.09 1213.67 3115.86 1222.3 3115.65 1230.6 3108.97 1237.28 3100.66 1237.5L2913.29 1237.5C2904.67 1237.27 2897.86 1230.1 2898.09 1221.48 2898.31 1213.17 2904.99 1206.49 2913.29 1206.27ZM2913.29 1081.37 3100.66 1081.37C3109.28 1081.59 3116.09 1088.77 3115.86 1097.39 3115.65 1105.7 3108.97 1112.38 3100.66 1112.59L2913.29 1112.59C2904.67 1112.43 2897.81 1105.31 2897.97 1096.69 2898.12 1088.29 2904.89 1081.52 2913.29 1081.36ZM2913.29 956.458 3100.66 956.458C3109.28 956.298 3116.4 963.158 3116.56 971.779 3116.72 980.4 3109.86 987.519 3101.24 987.679 3101.05 987.683 3100.85 987.683 3100.66 987.679L2913.29 987.679C2904.67 987.839 2897.55 980.979 2897.39 972.358 2897.23 963.737 2904.09 956.618 2912.71 956.458 2912.91 956.454 2913.1 956.454 2913.29 956.458Z" fill="#4C4F6E" fill-rule="nonzero" fill-opacity="1"/><path d="M2913.29 956.458 2944.52 956.458C2953.15 956.298 2960.26 963.158 2960.42 971.779 2960.58 980.4 2953.72 987.519 2945.1 987.679 2944.91 987.683 2944.72 987.683 2944.52 987.679L2913.29 987.679C2904.67 987.839 2897.55 980.979 2897.39 972.358 2897.23 963.737 2904.09 956.618 2912.71 956.458 2912.91 956.454 2913.1 956.454 2913.29 956.458ZM2913.29 1081.37 2944.52 1081.37C2953.15 1081.59 2959.95 1088.77 2959.73 1097.39 2959.51 1105.7 2952.83 1112.38 2944.52 1112.59L2913.29 1112.59C2904.67 1112.43 2897.81 1105.31 2897.97 1096.69 2898.12 1088.29 2904.89 1081.52 2913.29 1081.36ZM2913.29 1206.27 2944.52 1206.27C2953.15 1206.5 2959.95 1213.67 2959.73 1222.3 2959.51 1230.6 2952.83 1237.28 2944.52 1237.5L2913.29 1237.5C2904.67 1237.27 2897.86 1230.1 2898.09 1221.48 2898.31 1213.17 2904.99 1206.49 2913.29 1206.27Z" fill="#999AAC" fill-rule="nonzero" fill-opacity="1"/><path d="M2866.46 1299.96 3147.5 1299.96C3164.74 1299.96 3178.72 1313.94 3178.73 1331.18L3178.73 1393.64C3178.72 1410.88 3164.74 1424.86 3147.5 1424.86L2866.46 1424.86C2849.21 1424.87 2835.23 1410.89 2835.23 1393.64 2835.23 1393.64 2835.23 1393.64 2835.23 1393.64L2835.23 1331.18C2835.23 1313.93 2849.21 1299.96 2866.46 1299.96Z" fill="#2C2F53" fill-rule="nonzero" fill-opacity="1"/><path d="M2913.29 1331.18 3100.66 1331.18C3109.28 1331.41 3116.09 1338.58 3115.86 1347.2 3115.65 1355.51 3108.97 1362.19 3100.66 1362.41L2913.29 1362.41C2904.67 1362.41 2897.68 1355.41 2897.68 1346.79 2897.68 1338.17 2904.67 1331.18 2913.29 1331.18Z" fill="#4C4F6E" fill-rule="nonzero" fill-opacity="1"/><path d="M2866.46 1424.87 3147.5 1424.87C3164.75 1424.87 3178.73 1438.85 3178.73 1456.09L3178.73 1518.54C3178.73 1535.79 3164.75 1549.77 3147.51 1549.77 3147.5 1549.77 3147.5 1549.77 3147.5 1549.77L2866.46 1549.77C2849.21 1549.78 2835.23 1535.8 2835.23 1518.55 2835.23 1518.55 2835.23 1518.55 2835.23 1518.54L2835.23 1456.09C2835.22 1438.85 2849.2 1424.87 2866.45 1424.86 2866.45 1424.86 2866.45 1424.86 2866.46 1424.86Z" fill="#2C2F53" fill-rule="nonzero" fill-opacity="1"/><path d="M2913.29 1456.09 3100.66 1456.09C3109.28 1455.93 3116.4 1462.79 3116.56 1471.42 3116.72 1480.04 3109.86 1487.16 3101.24 1487.32 3101.05 1487.32 3100.85 1487.32 3100.66 1487.32L2913.29 1487.32C2904.67 1487.48 2897.55 1480.62 2897.39 1471.99 2897.23 1463.37 2904.09 1456.25 2912.71 1456.09 2912.91 1456.09 2913.1 1456.09 2913.29 1456.09Z" fill="#4C4F6E" fill-rule="nonzero" fill-opacity="1"/><path d="M2897.68 1003.29C2897.68 1011.91 2890.69 1018.9 2882.07 1018.9 2873.45 1018.9 2866.46 1011.91 2866.46 1003.29 2866.3 994.671 2873.16 987.552 2881.78 987.392 2890.4 987.232 2897.52 994.092 2897.68 1002.71 2897.68 1002.91 2897.68 1003.1 2897.68 1003.29Z" fill="#E80035" fill-rule="nonzero" fill-opacity="1"/><path d="M2960.13 1003.29C2960.29 1011.91 2953.43 1019.03 2944.81 1019.19 2936.19 1019.35 2929.07 1012.49 2928.91 1003.87 2928.91 1003.68 2928.91 1003.49 2928.91 1003.29 2928.91 994.669 2935.9 987.679 2944.52 987.679 2953.15 987.679 2960.14 994.669 2960.14 1003.29Z" fill="#11CBE5" fill-rule="nonzero" fill-opacity="1"/><path d="M2897.68 1128.21C2897.84 1136.83 2890.98 1143.95 2882.36 1144.11 2873.74 1144.27 2866.62 1137.41 2866.46 1128.79 2866.45 1128.59 2866.45 1128.4 2866.46 1128.21 2866.62 1119.59 2873.74 1112.73 2882.36 1112.89 2890.75 1113.04 2897.52 1119.81 2897.68 1128.21Z" fill="#E80035" fill-rule="nonzero" fill-opacity="1"/><path d="M2960.13 1128.21C2960.36 1136.83 2953.55 1144 2944.93 1144.23 2936.3 1144.46 2929.13 1137.65 2928.91 1129.03 2928.9 1128.75 2928.9 1128.48 2928.91 1128.21 2929.07 1119.58 2936.19 1112.72 2944.81 1112.88 2953.21 1113.04 2959.98 1119.81 2960.14 1128.21Z" fill="#11CBE5" fill-rule="nonzero" fill-opacity="1"/><path d="M2897.68 1253.12C2897.84 1261.74 2890.98 1268.86 2882.36 1269.02 2873.74 1269.18 2866.62 1262.32 2866.46 1253.7 2866.45 1253.5 2866.45 1253.31 2866.46 1253.12 2866.62 1244.5 2873.74 1237.64 2882.36 1237.8 2890.75 1237.95 2897.52 1244.72 2897.68 1253.12Z" fill="#E80035" fill-rule="nonzero" fill-opacity="1"/><path d="M2960.13 1253.12C2960.36 1261.74 2953.55 1268.91 2944.93 1269.14 2936.3 1269.36 2929.13 1262.55 2928.91 1253.93 2928.9 1253.66 2928.9 1253.39 2928.91 1253.11 2929.07 1244.49 2936.19 1237.63 2944.81 1237.79 2953.21 1237.94 2959.98 1244.71 2960.14 1253.11Z" fill="#11CBE5" fill-rule="nonzero" fill-opacity="1"/><path d="M2897.68 1378.02C2897.84 1386.65 2890.98 1393.76 2882.36 1393.92 2873.74 1394.08 2866.62 1387.22 2866.46 1378.6 2866.45 1378.41 2866.45 1378.22 2866.46 1378.02 2866.62 1369.4 2873.74 1362.54 2882.36 1362.7 2890.75 1362.86 2897.52 1369.63 2897.68 1378.02Z" fill="#E80035" fill-rule="nonzero" fill-opacity="1"/><path d="M2960.13 1378.02C2960.36 1386.65 2953.55 1393.82 2944.93 1394.04 2936.3 1394.27 2929.13 1387.46 2928.91 1378.84 2928.9 1378.56 2928.9 1378.29 2928.91 1378.02 2929.07 1369.39 2936.19 1362.53 2944.81 1362.69 2953.21 1362.85 2959.98 1369.62 2960.14 1378.02Z" fill="#11CBE5" fill-rule="nonzero" fill-opacity="1"/><path d="M2897.68 1502.93C2897.68 1511.55 2890.7 1518.54 2882.08 1518.54 2873.46 1518.54 2866.47 1511.56 2866.46 1502.94 2866.46 1494.32 2873.45 1487.33 2882.07 1487.33 2890.69 1487.32 2897.68 1494.31 2897.68 1502.93Z" fill="#E80035" fill-rule="nonzero" fill-opacity="1"/><path d="M2960.13 1502.93C2960.29 1511.55 2953.43 1518.67 2944.81 1518.83 2936.19 1518.99 2929.07 1512.13 2928.91 1503.51 2928.91 1503.31 2928.91 1503.12 2928.91 1502.93 2928.91 1494.31 2935.9 1487.32 2944.52 1487.32 2953.15 1487.32 2960.14 1494.31 2960.14 1502.93Z" fill="#11CBE5" fill-rule="nonzero" fill-opacity="1"/><path d="M3006.98 956.458C3015.6 956.455 3022.59 963.443 3022.59 972.066L3022.59 1003.29C3022.59 1011.92 3015.6 1018.91 3006.98 1018.91 2998.35 1018.91 2991.36 1011.92 2991.36 1003.29L2991.36 972.066C2991.37 963.443 2998.36 956.455 3006.98 956.458ZM3069.43 956.458C3078.05 956.452 3085.04 963.435 3085.05 972.055 3085.05 972.059 3085.05 972.062 3085.05 972.066L3085.05 1003.29C3085.05 1011.92 3078.06 1018.91 3069.43 1018.91 3060.81 1018.91 3053.82 1011.92 3053.82 1003.29L3053.82 972.066C3053.82 963.446 3060.81 956.458 3069.43 956.458ZM3131.88 956.458C3140.5 956.455 3147.5 963.443 3147.5 972.066L3147.5 1003.29C3147.5 1011.92 3140.51 1018.91 3131.89 1018.91 3123.26 1018.91 3116.27 1011.92 3116.27 1003.29L3116.27 972.066C3116.28 963.445 3123.27 956.458 3131.89 956.458ZM3006.98 1081.37C3015.6 1081.37 3022.59 1088.35 3022.59 1096.98L3022.59 1128.21C3022.44 1136.83 3015.31 1143.69 3006.69 1143.53 2998.29 1143.38 2991.52 1136.61 2991.36 1128.21L2991.36 1096.98C2991.37 1088.35 2998.36 1081.36 3006.98 1081.36ZM3069.43 1081.37C3078.05 1081.37 3085.04 1088.35 3085.05 1096.98L3085.05 1128.21C3085.05 1136.83 3078.06 1143.82 3069.43 1143.82 3060.81 1143.82 3053.82 1136.83 3053.82 1128.21L3053.82 1096.98C3053.82 1088.36 3060.81 1081.37 3069.43 1081.36ZM3069.43 1206.27C3078.05 1206.27 3085.04 1213.26 3085.05 1221.88 3085.05 1221.88 3085.05 1221.89 3085.05 1221.89L3085.05 1253.11C3085.05 1261.74 3078.06 1268.73 3069.43 1268.73 3060.81 1268.73 3053.82 1261.74 3053.82 1253.11L3053.82 1221.89C3053.82 1213.26 3060.81 1206.27 3069.43 1206.27ZM3069.43 1331.18C3078.05 1331.18 3085.04 1338.16 3085.05 1346.79 3085.05 1346.79 3085.05 1346.79 3085.05 1346.8L3085.05 1378.02C3085.05 1386.65 3078.06 1393.64 3069.43 1393.64 3060.81 1393.64 3053.82 1386.65 3053.82 1378.02L3053.82 1346.79C3053.82 1338.17 3060.81 1331.18 3069.43 1331.18ZM3069.43 1456.09C3078.05 1456.09 3085.04 1463.07 3085.05 1471.69 3085.05 1471.7 3085.05 1471.7 3085.05 1471.71L3085.05 1502.93C3085.05 1511.55 3078.06 1518.54 3069.43 1518.54 3060.81 1518.54 3053.82 1511.55 3053.82 1502.93L3053.82 1471.71C3053.82 1463.09 3060.8 1456.1 3069.42 1456.09 3069.42 1456.09 3069.43 1456.09 3069.43 1456.09ZM3131.88 1081.37C3140.5 1081.37 3147.49 1088.35 3147.5 1096.97L3147.5 1128.2C3147.27 1136.83 3140.1 1143.63 3131.48 1143.41 3123.17 1143.19 3116.49 1136.51 3116.27 1128.2L3116.27 1096.97C3116.28 1088.35 3123.27 1081.36 3131.89 1081.36ZM3006.98 1206.27C3015.6 1206.27 3022.59 1213.26 3022.59 1221.89L3022.59 1253.11C3022.44 1261.74 3015.31 1268.6 3006.69 1268.44 2998.29 1268.28 2991.52 1261.51 2991.36 1253.11L2991.36 1221.89C2991.36 1213.26 2998.36 1206.27 3006.98 1206.27ZM3131.88 1206.27C3140.5 1206.27 3147.49 1213.26 3147.5 1221.88L3147.5 1253.11C3147.27 1261.73 3140.1 1268.54 3131.48 1268.31 3123.17 1268.09 3116.49 1261.41 3116.27 1253.11L3116.27 1221.88C3116.27 1213.26 3123.26 1206.27 3131.89 1206.26ZM3006.98 1331.18C3015.6 1331.18 3022.59 1338.17 3022.59 1346.8L3022.59 1378.02C3022.44 1386.65 3015.31 1393.51 3006.69 1393.35 2998.29 1393.19 2991.52 1386.42 2991.36 1378.02L2991.36 1346.79C2991.37 1338.17 2998.36 1331.18 3006.98 1331.18ZM3131.88 1331.18C3140.51 1331.18 3147.5 1338.17 3147.5 1346.8L3147.5 1378.02C3147.27 1386.65 3140.1 1393.45 3131.48 1393.23 3123.17 1393.01 3116.49 1386.33 3116.27 1378.02L3116.27 1346.79C3116.28 1338.17 3123.27 1331.18 3131.89 1331.18ZM3006.98 1456.09C3015.6 1456.09 3022.59 1463.08 3022.59 1471.7 3022.59 1471.7 3022.59 1471.71 3022.59 1471.71L3022.59 1502.93C3022.59 1511.55 3015.6 1518.54 3006.98 1518.54 2998.35 1518.54 2991.36 1511.55 2991.36 1502.93L2991.36 1471.71C2991.36 1463.09 2998.35 1456.09 3006.97 1456.09 3006.97 1456.09 3006.98 1456.09 3006.98 1456.09ZM3131.88 1456.09C3140.5 1456.09 3147.5 1463.08 3147.5 1471.7 3147.5 1471.7 3147.5 1471.71 3147.5 1471.71L3147.5 1502.93C3147.5 1511.55 3140.51 1518.54 3131.89 1518.54 3123.26 1518.54 3116.27 1511.55 3116.27 1502.93L3116.27 1471.71C3116.27 1463.09 3123.26 1456.09 3131.88 1456.09 3131.88 1456.09 3131.89 1456.09 3131.89 1456.09Z" fill="#1E2147" fill-rule="nonzero" fill-opacity="1"/><path d="M2866.46 925.226 2868.18 925.226C2876.8 925.386 2883.66 932.507 2883.5 941.132 2883.35 949.531 2876.57 956.302 2868.18 956.458L2866.46 956.458 2866.46 1018.91C2875.12 1019.47 2881.81 1026.73 2881.68 1035.41 2881.56 1043.33 2875.3 1049.78 2867.39 1050.14L2866.45 1050.14 2865.71 1050.13 2865.66 1050.13C2865.65 1050.13 2862.77 1049.93 2862.28 1049.86 2846.27 1047.39 2835.23 1034.51 2835.23 1018.91L2835.23 956.458C2835.23 939.212 2849.21 925.229 2866.45 925.226Z" fill="#080B36" fill-rule="nonzero" fill-opacity="1"/><path d="M2866.46 1050.13 2868.18 1050.13C2876.8 1050.13 2883.79 1057.12 2883.79 1065.75 2883.79 1074.38 2876.8 1081.37 2868.18 1081.37L2866.46 1081.37 2866.46 1143.82C2875.12 1144.38 2881.81 1151.64 2881.68 1160.32 2881.56 1168.24 2875.3 1174.69 2867.39 1175.04L2865.66 1175.04C2865.65 1175.04 2862.77 1174.83 2862.28 1174.77 2846.27 1172.29 2835.23 1159.42 2835.23 1143.82L2835.23 1081.36C2835.23 1064.12 2849.21 1050.14 2866.45 1050.14ZM2866.46 1175.04 2868.18 1175.04C2876.8 1175.2 2883.66 1182.32 2883.5 1190.95 2883.35 1199.35 2876.57 1206.12 2868.18 1206.27L2866.46 1206.27 2866.46 1268.73C2875.12 1269.29 2881.82 1276.55 2881.68 1285.23 2881.56 1293.15 2875.3 1299.6 2867.39 1299.95L2866.45 1299.95 2865.71 1299.95 2865.66 1299.95C2865.65 1299.95 2862.77 1299.74 2862.28 1299.68 2846.27 1297.2 2835.23 1284.33 2835.23 1268.73L2835.23 1206.27C2835.23 1189.03 2849.21 1175.05 2866.45 1175.04Z" fill="#080B36" fill-rule="nonzero" fill-opacity="1"/><path d="M2866.46 1299.96 2868.18 1299.96C2876.8 1299.8 2883.92 1306.66 2884.08 1315.28 2884.24 1323.9 2877.38 1331.02 2868.75 1331.18 2868.56 1331.18 2868.37 1331.18 2868.18 1331.18L2866.46 1331.18 2866.46 1393.64C2875.12 1394.2 2881.82 1401.46 2881.68 1410.14 2881.56 1418.05 2875.3 1424.51 2867.39 1424.86L2866.45 1424.86C2866.21 1424.86 2865.96 1424.86 2865.71 1424.85L2865.66 1424.85C2865.65 1424.85 2862.77 1424.65 2862.28 1424.58 2846.27 1422.12 2835.23 1409.24 2835.23 1393.64L2835.23 1331.18C2835.23 1313.94 2849.21 1299.96 2866.45 1299.96Z" fill="#080B36" fill-rule="nonzero" fill-opacity="1"/><path d="M2866.46 1424.87 2868.18 1424.87C2876.8 1424.87 2883.79 1431.86 2883.79 1440.48 2883.79 1449.1 2876.8 1456.09 2868.18 1456.09L2866.46 1456.09 2866.46 1518.55C2875.12 1519.1 2881.82 1526.36 2881.68 1535.04 2881.57 1542.96 2875.3 1549.42 2867.39 1549.77L2866.45 1549.77 2865.71 1549.76 2865.66 1549.76C2865.65 1549.76 2862.77 1549.56 2862.28 1549.49 2846.27 1547.02 2835.23 1534.14 2835.23 1518.54L2835.23 1456.09C2835.23 1438.85 2849.21 1424.87 2866.45 1424.86ZM2882.07 1018.91 3131.88 1018.91C3140.51 1019.07 3147.37 1026.19 3147.21 1034.81 3147.05 1043.21 3140.28 1049.98 3131.88 1050.14L2882.07 1050.14C2873.45 1050.14 2866.46 1043.15 2866.46 1034.52 2866.46 1025.9 2873.45 1018.91 2882.07 1018.91ZM2882.07 1143.82 3131.88 1143.82C3140.5 1143.66 3147.62 1150.52 3147.78 1159.14 3147.94 1167.76 3141.08 1174.88 3132.46 1175.04 3132.27 1175.05 3132.07 1175.05 3131.88 1175.04L2882.07 1175.04C2873.45 1175.04 2866.46 1168.05 2866.46 1159.43 2866.46 1150.81 2873.45 1143.82 2882.07 1143.82Z" fill="#080B36" fill-rule="nonzero" fill-opacity="1"/><path d="M2882.07 1268.73 3131.88 1268.73C3140.5 1268.73 3147.49 1275.72 3147.49 1284.34 3147.49 1292.96 3140.5 1299.95 3131.88 1299.95L2882.07 1299.95C2873.45 1299.95 2866.46 1292.96 2866.46 1284.34 2866.46 1275.72 2873.45 1268.73 2882.07 1268.73Z" fill="#1E2147" fill-rule="nonzero" fill-opacity="1"/><path d="M2882.07 1393.63 3131.88 1393.63C3140.51 1393.63 3147.5 1400.62 3147.5 1409.25 3147.5 1417.88 3140.51 1424.87 3131.88 1424.87L2882.07 1424.87C2873.45 1424.87 2866.45 1417.88 2866.45 1409.25 2866.45 1400.62 2873.45 1393.63 2882.07 1393.63ZM2882.07 1518.54 3131.88 1518.54C3140.51 1518.7 3147.37 1525.82 3147.21 1534.45 3147.05 1542.85 3140.28 1549.62 3131.88 1549.77L2882.07 1549.77C2873.45 1549.77 2866.46 1542.78 2866.46 1534.16 2866.46 1525.53 2873.45 1518.54 2882.07 1518.54Z" fill="#080B36" fill-rule="nonzero" fill-opacity="1"/><path d="M3303.63 925.226 3428.54 925.226C3445.79 925.226 3459.77 939.208 3459.77 956.455 3459.77 973.703 3445.79 987.684 3428.54 987.684L3303.64 987.684C3286.39 987.458 3272.59 973.293 3272.82 956.046 3273.04 939.118 3286.71 925.448 3303.64 925.226Z" fill="#999AAC" fill-rule="nonzero" fill-opacity="1"/><path d="M3303.63 1221.88C3303.64 1213.26 3310.63 1206.28 3319.25 1206.28L3412.93 1206.28C3421.55 1206.28 3428.54 1213.27 3428.54 1221.89 3428.54 1230.52 3421.55 1237.51 3412.93 1237.51L3319.25 1237.51C3310.62 1237.51 3303.63 1230.51 3303.63 1221.89Z" fill="#1E2147" fill-rule="nonzero" fill-opacity="1"/><path d="M3303.63 1190.66C3303.63 1182.03 3310.63 1175.04 3319.25 1175.04L3412.93 1175.04C3421.55 1175.04 3428.54 1182.03 3428.54 1190.66 3428.54 1199.28 3421.55 1206.27 3412.93 1206.27L3319.25 1206.27C3310.62 1206.27 3303.63 1199.28 3303.63 1190.66ZM3303.63 1096.98C3303.64 1088.35 3310.63 1081.37 3319.25 1081.37L3412.93 1081.37C3421.55 1081.37 3428.54 1088.36 3428.54 1096.98 3428.54 1105.61 3421.55 1112.6 3412.93 1112.6L3319.25 1112.6C3310.62 1112.6 3303.63 1105.61 3303.63 1096.98Z" fill="#7C7F95" fill-rule="nonzero" fill-opacity="1"/><path d="M3303.63 1128.21C3303.63 1119.59 3310.62 1112.59 3319.24 1112.59 3319.24 1112.59 3319.25 1112.59 3319.25 1112.59L3412.93 1112.59C3421.55 1112.59 3428.54 1119.58 3428.54 1128.21 3428.54 1136.83 3421.55 1143.82 3412.93 1143.82L3319.25 1143.82C3310.62 1143.82 3303.63 1136.83 3303.63 1128.2Z" fill="#1E2147" fill-rule="nonzero" fill-opacity="1"/><path d="M3303.63 1159.43C3303.63 1150.81 3310.63 1143.82 3319.25 1143.82L3412.93 1143.82C3421.55 1143.82 3428.54 1150.81 3428.54 1159.43 3428.54 1168.05 3421.55 1175.04 3412.93 1175.04L3319.25 1175.04C3310.63 1175.05 3303.63 1168.06 3303.63 1159.43 3303.63 1159.43 3303.63 1159.43 3303.63 1159.43Z" fill="#4C4F6E" fill-rule="nonzero" fill-opacity="1"/><path d="M3303.63 1409.25C3303.63 1400.62 3310.62 1393.63 3319.25 1393.63L3412.93 1393.63C3421.55 1393.63 3428.55 1400.62 3428.55 1409.25 3428.55 1417.88 3421.55 1424.87 3412.93 1424.87L3319.25 1424.87C3310.62 1424.87 3303.63 1417.88 3303.63 1409.25Z" fill="#1E2147" fill-rule="nonzero" fill-opacity="1"/><path d="M3303.63 1378.02C3303.63 1369.4 3310.62 1362.41 3319.25 1362.41L3412.93 1362.41C3421.55 1362.41 3428.54 1369.4 3428.54 1378.02 3428.54 1386.65 3421.55 1393.64 3412.93 1393.64L3319.25 1393.64C3310.62 1393.64 3303.63 1386.64 3303.63 1378.02ZM3303.63 1284.34C3303.63 1275.72 3310.62 1268.73 3319.25 1268.73L3412.93 1268.73C3421.55 1268.73 3428.54 1275.72 3428.54 1284.34 3428.54 1292.97 3421.55 1299.96 3412.93 1299.96L3319.25 1299.96C3310.62 1299.96 3303.63 1292.97 3303.63 1284.34Z" fill="#7C7F95" fill-rule="nonzero" fill-opacity="1"/><path d="M3303.63 1315.57C3303.63 1306.94 3310.63 1299.95 3319.25 1299.96L3412.93 1299.96C3421.55 1299.96 3428.54 1306.95 3428.54 1315.57 3428.54 1324.19 3421.55 1331.18 3412.93 1331.18L3319.25 1331.18C3310.63 1331.18 3303.63 1324.19 3303.63 1315.57 3303.63 1315.57 3303.63 1315.56 3303.63 1315.56Z" fill="#1E2147" fill-rule="nonzero" fill-opacity="1"/><path d="M2913.29 1331.18 2944.52 1331.18C2953.15 1331.41 2959.95 1338.58 2959.73 1347.2 2959.51 1355.51 2952.83 1362.19 2944.52 1362.41L2913.29 1362.41C2904.67 1362.41 2897.68 1355.41 2897.68 1346.79 2897.68 1338.17 2904.67 1331.18 2913.29 1331.18ZM2913.29 1456.09 2944.52 1456.09C2953.15 1455.93 2960.26 1462.79 2960.42 1471.42 2960.58 1480.04 2953.72 1487.16 2945.1 1487.32 2944.91 1487.32 2944.72 1487.32 2944.52 1487.32L2913.29 1487.32C2904.67 1487.48 2897.55 1480.62 2897.39 1471.99 2897.23 1463.37 2904.09 1456.25 2912.71 1456.09 2912.91 1456.09 2913.1 1456.09 2913.29 1456.09Z" fill="#999AAC" fill-rule="nonzero" fill-opacity="1"/></g></g></g><g><g><g><path d="M445.406 416.954 94.7598 416.954C63.5951 416.954 36.9944 394.287 31.8715 363.358L0.876699 74.6955C-4.90915 39.7448 18.552 6.70085 53.289 0.871165 56.7463 0.290388 60.2529 0 63.7704 0L414.411 0C445.576 0 472.177 22.6722 477.3 53.6013L508.295 342.269C514.08 377.214 490.619 410.264 455.888 416.088 452.425 416.669 448.918 416.959 445.406 416.959Z" fill="#1E2147" fill-rule="nonzero" fill-opacity="1" transform="matrix(1 0 0 1.0016 164.439 1091)"/><path d="M94.7598 384.885C79.1555 384.918 65.8305 373.549 63.3102 358.06L32.5619 71.2437C30.7538 59.9679 33.2796 50.7467 39.4436 43.4267 45.4436 36.1787 54.3832 32.0107 63.7923 32.0742L414.417 32.0742C430.016 32.0194 443.346 43.372 445.861 58.8666L476.609 345.726C478.417 356.997 475.897 366.24 469.728 373.549 463.737 380.786 454.812 384.95 445.417 384.89L94.7598 384.891Z" fill="#2C2F53" fill-rule="nonzero" fill-opacity="1" transform="matrix(1 0 0 1.0016 164.439 1091)"/><path d="M127.502 288.668 414.411 288.668C432.021 288.668 446.288 303.023 446.288 320.742 446.288 338.45 432.021 352.816 414.411 352.816L127.497 352.816C109.898 352.816 95.62 338.45 95.62 320.742 95.6255 303.023 109.898 288.668 127.497 288.668Z" fill="#4C4F6E" fill-rule="nonzero" fill-opacity="1" transform="matrix(1 0 0 1.0016 164.439 1091)"/><path d="M302.837 352.816 653.494 352.816C679.903 352.816 701.315 374.349 701.315 400.922 701.315 427.495 679.909 449.028 653.494 449.028L302.837 449.028C276.428 449.028 255.021 427.495 255.021 400.922 255.021 374.349 276.428 352.816 302.837 352.816Z" fill="#999AAC" fill-rule="nonzero" fill-opacity="1" transform="matrix(1 0 0 1.0016 164.439 1091)"/><path d="M111.564 352.816 302.837 352.816C329.246 352.816 350.652 374.349 350.652 400.922 350.652 427.495 329.246 449.028 302.837 449.028L111.564 449.028C85.1605 449.028 63.754 427.495 63.754 400.922 63.754 374.349 85.1605 352.816 111.564 352.816Z" fill="#CACAD4" fill-rule="nonzero" fill-opacity="1" transform="matrix(1 0 0 1.0016 164.439 1091)"/><path d="M159.385 288.668C159.385 306.376 145.112 320.742 127.502 320.742 109.904 320.742 95.6255 306.376 95.6255 288.668 95.6255 270.949 109.904 256.588 127.502 256.588 145.112 256.588 159.385 270.943 159.385 288.668Z" fill="#11CBE5" fill-rule="nonzero" fill-opacity="1" transform="matrix(1 0 0 1.0016 164.439 1091)"/><path d="M255.021 288.668C255.021 306.376 240.743 320.742 223.144 320.742 205.535 320.742 191.262 306.376 191.262 288.668 191.262 270.949 205.535 256.588 223.144 256.588 240.743 256.588 255.021 270.943 255.021 288.668Z" fill="#91EDF8" fill-rule="nonzero" fill-opacity="1" transform="matrix(1 0 0 1.0016 164.439 1091)"/><path d="M350.652 288.668C350.652 306.376 336.385 320.742 318.781 320.742 301.171 320.742 286.898 306.376 286.898 288.668 286.898 270.949 301.171 256.588 318.781 256.588 336.385 256.588 350.652 270.943 350.652 288.668Z" fill="#FDB8BF" fill-rule="nonzero" fill-opacity="1" transform="matrix(1 0 0 1.0016 164.439 1091)"/><path d="M446.288 288.668C446.288 306.376 432.021 320.742 414.411 320.742 396.807 320.742 382.529 306.376 382.529 288.668 382.529 270.949 396.807 256.588 414.411 256.588 432.021 256.588 446.288 270.943 446.288 288.668Z" fill="#FA4659" fill-rule="nonzero" fill-opacity="1" transform="matrix(1 0 0 1.0016 164.439 1091)"/><path d="M111.564 256.588C120.374 256.588 127.508 263.771 127.508 272.625 127.538 281.455 120.405 288.638 111.575 288.668 111.571 288.668 111.568 288.668 111.564 288.668 102.734 288.638 95.6007 281.455 95.6309 272.625 95.6309 272.625 95.6309 272.625 95.6309 272.625 95.6037 263.798 102.736 256.618 111.564 256.588Z" fill="#BCF4F5" fill-rule="nonzero" fill-opacity="1" transform="matrix(1 0 0 1.0016 164.439 1091)"/><path d="M302.837 256.588C311.641 256.588 318.781 263.771 318.781 272.625 318.811 281.455 311.678 288.638 302.848 288.668 302.844 288.668 302.84 288.668 302.837 288.668 294.007 288.641 286.871 281.461 286.898 272.631 286.898 272.629 286.898 272.627 286.898 272.625 286.871 263.796 294.007 256.615 302.837 256.588 302.838 256.588 302.84 256.588 302.842 256.588ZM398.473 256.588C407.272 256.588 414.411 263.771 414.411 272.625 414.442 281.455 407.308 288.638 398.479 288.668 398.475 288.668 398.471 288.668 398.468 288.668 389.638 288.641 382.502 281.461 382.529 272.631 382.529 272.629 382.529 272.627 382.529 272.625 382.502 263.796 389.638 256.615 398.467 256.588 398.469 256.588 398.471 256.588 398.473 256.588Z" fill="#FEDEE1" fill-rule="nonzero" fill-opacity="1" transform="matrix(1 0 0 1.0016 164.439 1091)"/><path d="M207.2 256.588C216.005 256.588 223.144 263.771 223.144 272.625 223.175 281.455 216.041 288.638 207.211 288.668 207.208 288.668 207.204 288.668 207.2 288.668 198.371 288.641 191.235 281.461 191.262 272.631 191.262 272.629 191.262 272.627 191.262 272.625 191.235 263.796 198.37 256.615 207.2 256.588 207.202 256.588 207.204 256.588 207.206 256.588Z" fill="#E9FFF5" fill-rule="nonzero" fill-opacity="1" transform="matrix(1 0 0 1.0016 164.439 1091)"/><path d="M111.564 384.885 143.446 384.885C152.251 384.885 159.385 392.063 159.385 400.922 159.415 409.749 152.284 416.929 143.457 416.959 143.452 416.959 143.446 416.959 143.441 416.959L111.564 416.959C102.737 416.932 95.6037 409.754 95.6309 400.928 95.6309 400.926 95.6309 400.924 95.6309 400.922 95.6037 392.094 102.736 384.915 111.564 384.885Z" fill="#7C7F95" fill-rule="nonzero" fill-opacity="1" transform="matrix(1 0 0 1.0016 164.439 1091)"/><path d="M207.2 384.885 239.083 384.885C247.882 384.885 255.021 392.063 255.021 400.922 255.048 409.752 247.913 416.932 239.083 416.959 239.081 416.959 239.079 416.959 239.077 416.959L207.2 416.959C198.371 416.932 191.235 409.752 191.262 400.922 191.235 392.092 198.37 384.912 207.2 384.885 207.202 384.885 207.204 384.885 207.206 384.885Z" fill="#4C4F6E" fill-rule="nonzero" fill-opacity="1" transform="matrix(1 0 0 1.0016 164.439 1091)"/><path d="M462.227 352.816 557.863 352.816C566.668 352.816 573.807 359.994 573.807 368.853 573.832 377.683 566.693 384.861 557.863 384.885L462.227 384.885C453.399 384.858 446.264 377.681 446.288 368.853 446.261 360.024 453.397 352.844 462.227 352.816 462.229 352.816 462.231 352.816 462.232 352.816Z" fill="#2C2F53" fill-rule="nonzero" fill-opacity="1" transform="matrix(1 0 0 1.0016 164.439 1091)"/><path d="M366.591 416.954 653.494 416.954C662.299 416.954 669.438 424.137 669.438 432.996 669.465 441.826 662.33 449.006 653.5 449.033 653.498 449.033 653.496 449.033 653.494 449.033L366.591 449.033C357.763 449.003 350.63 441.824 350.658 432.996 350.63 424.167 357.766 416.986 366.596 416.959 366.598 416.959 366.6 416.959 366.602 416.959Z" fill="#7C7F95" fill-rule="nonzero" fill-opacity="1" transform="matrix(1 0 0 1.0016 164.439 1091)"/></g></g></g><g><g><g><path d="M390.076 612.995 167.185 612.995 172.726 610.217C204.294 594.436 226.521 564.635 232.646 529.877L243.943 465.8C247.864 438.343 271.378 417.948 299.113 417.948L369.617 417.948C397.345 417.948 420.859 438.349 424.786 465.8L445.236 549.387C449.594 579.855 428.421 608.082 397.954 612.435 395.344 612.808 392.71 612.995 390.071 612.995Z" fill="#999AAC" fill-rule="nonzero" fill-opacity="1" transform="matrix(-1 0 0 1.00163 2206 927)"/><path d="M444.364 545.796 442.051 536.328 438.77 522.938 435.016 507.593 431.261 492.245 427.981 478.855 425.668 469.391 424.786 465.8C420.866 438.343 397.352 417.948 369.617 417.948L368.084 417.948C360.389 418.09 354.266 424.444 354.409 432.14 354.548 439.634 360.59 445.676 368.084 445.815L369.617 445.815C383.462 445.871 395.186 456.039 397.202 469.736 397.331 470.637 397.503 471.532 397.724 472.418L417.799 554.459C419.347 569.774 408.185 583.444 392.87 584.991 391.941 585.085 391.009 585.132 390.076 585.133L153.249 585.133C145.555 585.334 139.481 591.735 139.683 599.429 139.877 606.839 145.838 612.801 153.249 612.995L390.076 612.995C420.836 613.014 445.791 588.092 445.81 557.337 445.81 554.674 445.619 552.021 445.245 549.387L444.364 545.796Z" fill="#7C7F95" fill-rule="nonzero" fill-opacity="1" transform="matrix(-1 0 0 1.00163 2206 927)"/><path d="M292.561 445.81 348.296 445.81C371.38 446.057 389.892 464.97 389.645 488.054 389.402 510.789 371.031 529.159 348.296 529.403L292.561 529.403C269.479 529.053 251.051 510.058 251.4 486.976 251.742 464.387 269.972 446.157 292.561 445.815Z" fill="#7C7F95" fill-rule="nonzero" fill-opacity="1" transform="matrix(-1 0 0 1.00163 2206 927)"/><path d="M55.7299 0 557.265 0C588.044 0 612.995 24.9508 612.995 55.7299L612.995 417.948C612.995 448.727 588.044 473.678 557.265 473.678L55.7299 473.678C24.9508 473.682 0 448.732 0 417.948L0 55.7299C0 24.9508 24.9508 0 55.7299 0Z" fill="#999AAC" fill-rule="nonzero" fill-opacity="1" transform="matrix(-1 0 0 1.00163 2206 927)"/><path d="M55.7299 0 473.678 0C504.457 0 529.403 24.9508 529.403 55.7299L529.403 417.948C529.403 448.727 504.452 473.678 473.678 473.678L55.7299 473.678C24.9508 473.682 0 448.732 0 417.948L0 55.7299C0 24.9508 24.9508 0 55.7299 0Z" fill="#CACAD4" fill-rule="nonzero" fill-opacity="1" transform="matrix(-1 0 0 1.00163 2206 927)"/><path d="M556.485 13.7206C554.912 13.7237 553.342 13.8567 551.791 14.118 536.466 16.7746 526.147 31.2877 528.67 46.6355L528.67 46.6547 528.68 46.7026 528.852 47.8376 528.957 48.4841C528.981 48.7618 529.005 49.0396 529.044 49.3222 529.197 50.7062 529.302 52.0998 529.36 53.5173L529.364 53.6131 529.364 53.6179 529.369 53.7089 529.369 53.7233 529.374 53.8095 529.374 53.8191 529.384 54.2118 529.384 54.2213 529.388 54.3123 529.388 54.432 529.393 54.5039 529.393 54.9205 529.403 54.9397 529.403 418.685 529.398 418.747 529.398 418.949 529.393 419.025 529.393 419.217 529.388 419.298 529.388 419.399 529.384 419.562 529.384 419.576 529.379 419.657 529.379 419.839 529.364 420.012 529.364 420.199 529.355 420.285 529.355 420.462C529.348 420.521 529.343 420.58 529.34 420.639L529.34 420.644C529.134 425.05 528.402 429.413 527.161 433.646 523.095 448.49 531.832 463.82 546.675 467.886 561.152 471.852 576.169 463.64 580.64 449.311 583.624 439.125 585.137 428.565 585.133 417.948L585.133 55.7299C585.133 51.4916 584.893 47.2581 584.414 43.0533 584.367 42.6501 584.313 42.2477 584.251 41.8465 584.195 41.233 584.119 40.6213 584.026 40.0123L583.557 36.9856C581.514 23.6088 570.012 13.7262 556.48 13.7206Z" fill="#7C7F95" fill-rule="nonzero" fill-opacity="1" transform="matrix(-1 0 0 1.00163 2206 927)"/><path d="M473.682 0 55.7251 0C24.9508 0 0 24.9508 0 55.7251L0 362.223 529.407 362.223 529.407 55.7251C529.407 24.9508 504.457 0 473.678 0Z" fill="#2C2F53" fill-rule="nonzero" fill-opacity="1" transform="matrix(-1 0 0 1.00163 2206 927)"/><path d="M278.635 417.948C278.635 433.336 266.161 445.81 250.772 445.81 235.384 445.81 222.91 433.336 222.91 417.948 222.91 402.56 235.384 390.085 250.772 390.085 266.161 390.085 278.635 402.56 278.635 417.948Z" fill="#4C4F6E" fill-rule="nonzero" fill-opacity="1" transform="matrix(-1 0 0 1.00163 2206 927)"/><path d="M571.196 83.5876C578.893 83.5876 585.133 89.827 585.133 97.5237L585.133 236.836C585.133 244.532 578.894 250.77 571.199 250.77 563.504 250.77 557.265 244.532 557.265 236.836L557.265 97.5237C557.265 89.827 563.505 83.5876 571.201 83.5876Z" fill="#2C2F53" fill-rule="nonzero" fill-opacity="1" transform="matrix(-1 0 0 1.00163 2206 927)"/><path d="M41.7986 362.227 487.609 362.227C495.302 362.085 501.653 368.205 501.796 375.898 501.939 383.591 495.818 389.943 488.125 390.085 487.953 390.088 487.781 390.088 487.609 390.085L41.7986 390.085C34.1059 390.228 27.7541 384.107 27.6114 376.415 27.4688 368.722 33.5893 362.37 41.282 362.227 41.4542 362.224 41.6264 362.224 41.7986 362.227Z" fill="#EAEAEE" fill-rule="nonzero" fill-opacity="1" transform="matrix(-1 0 0 1.00163 2206 927)"/><path d="M55.7299 278.635 473.678 278.635C489.066 278.92 501.309 291.626 501.024 307.014 500.746 322 488.664 334.082 473.678 334.36L55.7299 334.36C40.3418 334.36 27.8673 321.886 27.8673 306.498 27.8673 291.109 40.3418 278.635 55.7299 278.635Z" fill="#4C4F6E" fill-rule="nonzero" fill-opacity="1" transform="matrix(-1 0 0 1.00163 2206 927)"/><path d="M83.5876 250.768C98.977 250.768 111.453 263.243 111.453 278.633 111.453 294.022 98.977 306.498 83.5876 306.498 68.1982 306.498 55.7227 294.022 55.7227 278.633 55.7227 263.243 68.1982 250.768 83.5876 250.768Z" fill="#11CBE5" fill-rule="nonzero" fill-opacity="1" transform="matrix(-1 0 0 1.00163 2206 927)"/><path d="M69.6611 250.768C77.3552 250.769 83.5913 257.007 83.59 264.701 83.5887 272.395 77.3504 278.632 69.6563 278.63 61.9623 278.63 55.7251 272.393 55.7251 264.699 55.7251 257.005 61.9623 250.768 69.6563 250.768Z" fill="#BCF4F5" fill-rule="nonzero" fill-opacity="1" transform="matrix(-1 0 0 1.00163 2206 927)"/><path d="M195.047 250.768C210.438 250.77 222.913 263.249 222.91 278.64 222.907 294.03 210.428 306.505 195.038 306.502 179.647 306.5 167.173 294.021 167.175 278.63 167.178 263.24 179.657 250.765 195.047 250.768Z" fill="#91EDF8" fill-rule="nonzero" fill-opacity="1" transform="matrix(-1 0 0 1.00163 2206 927)"/><path d="M306.498 250.768C321.888 250.769 334.364 263.247 334.362 278.637 334.361 294.028 321.883 306.504 306.493 306.502 291.102 306.501 278.626 294.023 278.628 278.633 278.629 263.242 291.107 250.766 306.498 250.768Z" fill="#FDB8BF" fill-rule="nonzero" fill-opacity="1" transform="matrix(-1 0 0 1.00163 2206 927)"/><path d="M417.948 250.768C433.337 250.768 445.813 263.243 445.813 278.633 445.813 294.022 433.337 306.498 417.948 306.498 402.558 306.498 390.083 294.022 390.083 278.633 390.083 263.243 402.558 250.768 417.948 250.768Z" fill="#FA4659" fill-rule="nonzero" fill-opacity="1" transform="matrix(-1 0 0 1.00163 2206 927)"/><path d="M292.561 250.768C300.258 250.768 306.498 257.007 306.498 264.704 306.498 272.4 300.258 278.64 292.561 278.64 284.865 278.64 278.625 272.4 278.625 264.704 278.625 257.007 284.865 250.768 292.561 250.768ZM404.016 250.768C411.71 250.768 417.948 257.005 417.948 264.699 417.948 272.393 411.71 278.63 404.016 278.63 396.322 278.63 390.085 272.393 390.085 264.699 390.085 257.005 396.322 250.768 404.016 250.768Z" fill="#FEDEE1" fill-rule="nonzero" fill-opacity="1" transform="matrix(-1 0 0 1.00163 2206 927)"/><path d="M181.111 250.768C188.808 250.768 195.047 257.007 195.047 264.704 195.047 272.4 188.808 278.64 181.111 278.64 173.415 278.64 167.175 272.4 167.175 264.704 167.175 257.007 173.415 250.768 181.111 250.768Z" fill="#E9FFF5" fill-rule="nonzero" fill-opacity="1" transform="matrix(-1 0 0 1.00163 2206 927)"/><path d="M125.386 585.133 264.699 585.133C272.393 585.334 278.467 591.735 278.265 599.429 278.071 606.839 272.109 612.801 264.699 612.995L125.386 612.995C117.692 612.793 111.619 606.393 111.82 598.698 112.015 591.288 117.976 585.327 125.386 585.133Z" fill="#CACAD4" fill-rule="nonzero" fill-opacity="1" transform="matrix(-1 0 0 1.00163 2206 927)"/></g></g></g><text fill="#7F7F7F" fill-opacity="1" font-family="PingFang SC,PingFang SC_MSFontService,sans-serif" font-style="normal" font-variant="normal" font-weight="600" font-stretch="normal" font-size="73" text-anchor="start" direction="ltr" writing-mode="lr-tb" unicode-bidi="normal" text-decoration="none" transform="matrix(1 0 0 1 2834.59 1663)">「主机</text><text fill="#7F7F7F" fill-opacity="1" font-family="PingFang SC,PingFang SC_MSFontService,sans-serif" font-style="normal" font-variant="normal" font-weight="600" font-stretch="normal" font-size="73" text-anchor="start" direction="ltr" writing-mode="lr-tb" unicode-bidi="normal" text-decoration="none" transform="matrix(1 0 0 1 3054.59 1663)">3(server</text><text fill="#7F7F7F" fill-opacity="1" font-family="PingFang SC,PingFang SC_MSFontService,sans-serif" font-style="normal" font-variant="normal" font-weight="600" font-stretch="normal" font-size="73" text-anchor="start" direction="ltr" writing-mode="lr-tb" unicode-bidi="normal" text-decoration="none" transform="matrix(1 0 0 1 3337.61 1663)">)</text><text fill="#7F7F7F" fill-opacity="1" font-family="PingFang SC,PingFang SC_MSFontService,sans-serif" font-style="normal" font-variant="normal" font-weight="600" font-stretch="normal" font-size="73" text-anchor="start" direction="ltr" writing-mode="lr-tb" unicode-bidi="normal" text-decoration="none" transform="matrix(1 0 0 1 3386.88 1663)">」</text><text fill="#7F7F7F" fill-opacity="1" font-family="PingFang SC,PingFang SC_MSFontService,sans-serif" font-style="normal" font-variant="normal" font-weight="600" font-stretch="normal" font-size="73" text-anchor="start" direction="ltr" writing-mode="lr-tb" unicode-bidi="normal" text-decoration="none" transform="matrix(1 0 0 1 1610.99 1663)">「主机</text><text fill="#7F7F7F" fill-opacity="1" font-family="PingFang SC,PingFang SC_MSFontService,sans-serif" font-style="normal" font-variant="normal" font-weight="600" font-stretch="normal" font-size="73" text-anchor="start" direction="ltr" writing-mode="lr-tb" unicode-bidi="normal" text-decoration="none" transform="matrix(1 0 0 1 1830.99 1663)">2</text><text fill="#7F7F7F" fill-opacity="1" font-family="PingFang SC,PingFang SC_MSFontService,sans-serif" font-style="normal" font-variant="normal" font-weight="600" font-stretch="normal" font-size="73" text-anchor="start" direction="ltr" writing-mode="lr-tb" unicode-bidi="normal" text-decoration="none" transform="matrix(1 0 0 1 1875.1 1663)">(</text><text fill="#7F7F7F" fill-opacity="1" font-family="PingFang SC,PingFang SC_MSFontService,sans-serif" font-style="normal" font-variant="normal" font-weight="600" font-stretch="normal" font-size="73" text-anchor="start" direction="ltr" writing-mode="lr-tb" unicode-bidi="normal" text-decoration="none" transform="matrix(1 0 0 1 1899.74 1663)">loacl</text><text fill="#7F7F7F" fill-opacity="1" font-family="PingFang SC,PingFang SC_MSFontService,sans-serif" font-style="normal" font-variant="normal" font-weight="600" font-stretch="normal" font-size="73" text-anchor="start" direction="ltr" writing-mode="lr-tb" unicode-bidi="normal" text-decoration="none" transform="matrix(1 0 0 1 2064.74 1663)">)</text><text fill="#7F7F7F" fill-opacity="1" font-family="PingFang SC,PingFang SC_MSFontService,sans-serif" font-style="normal" font-variant="normal" font-weight="600" font-stretch="normal" font-size="73" text-anchor="start" direction="ltr" writing-mode="lr-tb" unicode-bidi="normal" text-decoration="none" transform="matrix(1 0 0 1 2114.01 1663)">」</text><text fill="#7F7F7F" fill-opacity="1" font-family="PingFang SC,PingFang SC_MSFontService,sans-serif" font-style="normal" font-variant="normal" font-weight="600" font-stretch="normal" font-size="73" text-anchor="start" direction="ltr" writing-mode="lr-tb" unicode-bidi="normal" text-decoration="none" transform="matrix(1 0 0 1 353.266 1663)">「</text><text fill="#7F7F7F" fill-opacity="1" font-family="PingFang SC,PingFang SC_MSFontService,sans-serif" font-style="normal" font-variant="normal" font-weight="600" font-stretch="normal" font-size="73" text-anchor="start" direction="ltr" writing-mode="lr-tb" unicode-bidi="normal" text-decoration="none" transform="matrix(1 0 0 1 426.599 1663)">主机</text><text fill="#7F7F7F" fill-opacity="1" font-family="PingFang SC,PingFang SC_MSFontService,sans-serif" font-style="normal" font-variant="normal" font-weight="600" font-stretch="normal" font-size="73" text-anchor="start" direction="ltr" writing-mode="lr-tb" unicode-bidi="normal" text-decoration="none" transform="matrix(1 0 0 1 573.266 1663)">1</text><text fill="#7F7F7F" fill-opacity="1" font-family="PingFang SC,PingFang SC_MSFontService,sans-serif" font-style="normal" font-variant="normal" font-weight="600" font-stretch="normal" font-size="73" text-anchor="start" direction="ltr" writing-mode="lr-tb" unicode-bidi="normal" text-decoration="none" transform="matrix(1 0 0 1 603.058 1663)">」</text><path d="M1014 1885.12 1528.09 1885.13 1528.09 1898.88 1014 1898.88ZM1521.21 1871.38 1562.46 1892 1521.21 1912.63Z" fill="#A6A6A6" fill-rule="nonzero" fill-opacity="1"/><text fill="#7F7F7F" fill-opacity="1" font-family="PingFang SC,PingFang SC_MSFontService,sans-serif" font-style="normal" font-variant="normal" font-weight="600" font-stretch="normal" font-size="73" text-anchor="start" direction="ltr" writing-mode="lr-tb" unicode-bidi="normal" text-decoration="none" transform="matrix(1 0 0 1 125.594 1011)">~/.</text><text fill="#7F7F7F" fill-opacity="1" font-family="PingFang SC,PingFang SC_MSFontService,sans-serif" font-style="normal" font-variant="normal" font-weight="600" font-stretch="normal" font-size="73" text-anchor="start" direction="ltr" writing-mode="lr-tb" unicode-bidi="normal" text-decoration="none" transform="matrix(1 0 0 1 218.979 1011)">ssh</text><text fill="#7F7F7F" fill-opacity="1" font-family="PingFang SC,PingFang SC_MSFontService,sans-serif" font-style="normal" font-variant="normal" font-weight="600" font-stretch="normal" font-size="73" text-anchor="start" direction="ltr" writing-mode="lr-tb" unicode-bidi="normal" text-decoration="none" transform="matrix(1 0 0 1 338.146 1011)">/</text><text fill="#7F7F7F" fill-opacity="1" font-family="PingFang SC,PingFang SC_MSFontService,sans-serif" font-style="normal" font-variant="normal" font-weight="600" font-stretch="normal" font-size="73" text-anchor="start" direction="ltr" writing-mode="lr-tb" unicode-bidi="normal" text-decoration="none" transform="matrix(1 0 0 1 374.813 1011)">id_rsa_server</text><text fill="#7F7F7F" fill-opacity="1" font-family="PingFang SC,PingFang SC_MSFontService,sans-serif" font-style="normal" font-variant="normal" font-weight="600" font-stretch="normal" font-size="73" text-anchor="start" direction="ltr" writing-mode="lr-tb" unicode-bidi="normal" text-decoration="none" transform="matrix(1 0 0 1 216.672 924)">私钥</text><text fill="#7F7F7F" fill-opacity="1" font-family="PingFang SC,PingFang SC_MSFontService,sans-serif" font-style="normal" font-variant="normal" font-weight="600" font-stretch="normal" font-size="73" text-anchor="start" direction="ltr" writing-mode="lr-tb" unicode-bidi="normal" text-decoration="none" transform="matrix(1 0 0 1 2803.65 807)">~/.</text><text fill="#7F7F7F" fill-opacity="1" font-family="PingFang SC,PingFang SC_MSFontService,sans-serif" font-style="normal" font-variant="normal" font-weight="600" font-stretch="normal" font-size="73" text-anchor="start" direction="ltr" writing-mode="lr-tb" unicode-bidi="normal" text-decoration="none" transform="matrix(1 0 0 1 2897.03 807)">ssh</text><text fill="#7F7F7F" fill-opacity="1" font-family="PingFang SC,PingFang SC_MSFontService,sans-serif" font-style="normal" font-variant="normal" font-weight="600" font-stretch="normal" font-size="73" text-anchor="start" direction="ltr" writing-mode="lr-tb" unicode-bidi="normal" text-decoration="none" transform="matrix(1 0 0 1 3016.2 807)">/</text><text fill="#7F7F7F" fill-opacity="1" font-family="PingFang SC,PingFang SC_MSFontService,sans-serif" font-style="normal" font-variant="normal" font-weight="600" font-stretch="normal" font-size="73" text-anchor="start" direction="ltr" writing-mode="lr-tb" unicode-bidi="normal" text-decoration="none" transform="matrix(1 0 0 1 3052.87 807)">id_rsa_server.pub</text><text fill="#7F7F7F" fill-opacity="1" font-family="PingFang SC,PingFang SC_MSFontService,sans-serif" font-style="normal" font-variant="normal" font-weight="600" font-stretch="normal" font-size="73" text-anchor="start" direction="ltr" writing-mode="lr-tb" unicode-bidi="normal" text-decoration="none" transform="matrix(1 0 0 1 2905.39 720)">公钥</text><text fill="#7F7F7F" fill-opacity="1" font-family="PingFang SC,PingFang SC_MSFontService,sans-serif" font-style="normal" font-variant="normal" font-weight="600" font-stretch="normal" font-size="73" text-anchor="start" direction="ltr" writing-mode="lr-tb" unicode-bidi="normal" text-decoration="none" transform="matrix(1 0 0 1 125.594 1920)">~/.</text><text fill="#7F7F7F" fill-opacity="1" font-family="PingFang SC,PingFang SC_MSFontService,sans-serif" font-style="normal" font-variant="normal" font-weight="600" font-stretch="normal" font-size="73" text-anchor="start" direction="ltr" writing-mode="lr-tb" unicode-bidi="normal" text-decoration="none" transform="matrix(1 0 0 1 218.979 1920)">ssh</text><text fill="#7F7F7F" fill-opacity="1" font-family="PingFang SC,PingFang SC_MSFontService,sans-serif" font-style="normal" font-variant="normal" font-weight="600" font-stretch="normal" font-size="73" text-anchor="start" direction="ltr" writing-mode="lr-tb" unicode-bidi="normal" text-decoration="none" transform="matrix(1 0 0 1 338.146 1920)">/</text><text fill="#7F7F7F" fill-opacity="1" font-family="PingFang SC,PingFang SC_MSFontService,sans-serif" font-style="normal" font-variant="normal" font-weight="600" font-stretch="normal" font-size="73" text-anchor="start" direction="ltr" writing-mode="lr-tb" unicode-bidi="normal" text-decoration="none" transform="matrix(1 0 0 1 374.813 1920)">id_rsa_local.pub</text><text fill="#7F7F7F" fill-opacity="1" font-family="PingFang SC,PingFang SC_MSFontService,sans-serif" font-style="normal" font-variant="normal" font-weight="600" font-stretch="normal" font-size="73" text-anchor="start" direction="ltr" writing-mode="lr-tb" unicode-bidi="normal" text-decoration="none" transform="matrix(1 0 0 1 216.672 1833)">公钥</text><text fill="#7F7F7F" fill-opacity="1" font-family="PingFang SC,PingFang SC_MSFontService,sans-serif" font-style="normal" font-variant="normal" font-weight="600" font-stretch="normal" font-size="73" text-anchor="start" direction="ltr" writing-mode="lr-tb" unicode-bidi="normal" text-decoration="none" transform="matrix(1 0 0 1 1591.8 1920)">~/.</text><text fill="#7F7F7F" fill-opacity="1" font-family="PingFang SC,PingFang SC_MSFontService,sans-serif" font-style="normal" font-variant="normal" font-weight="600" font-stretch="normal" font-size="73" text-anchor="start" direction="ltr" writing-mode="lr-tb" unicode-bidi="normal" text-decoration="none" transform="matrix(1 0 0 1 1685.18 1920)">ssh</text><text fill="#7F7F7F" fill-opacity="1" font-family="PingFang SC,PingFang SC_MSFontService,sans-serif" font-style="normal" font-variant="normal" font-weight="600" font-stretch="normal" font-size="73" text-anchor="start" direction="ltr" writing-mode="lr-tb" unicode-bidi="normal" text-decoration="none" transform="matrix(1 0 0 1 1804.35 1920)">/</text><text fill="#7F7F7F" fill-opacity="1" font-family="PingFang SC,PingFang SC_MSFontService,sans-serif" font-style="normal" font-variant="normal" font-weight="600" font-stretch="normal" font-size="73" text-anchor="start" direction="ltr" writing-mode="lr-tb" unicode-bidi="normal" text-decoration="none" transform="matrix(1 0 0 1 1841.02 1920)">id_rsa_local.pub</text><text fill="#7F7F7F" fill-opacity="1" font-family="PingFang SC,PingFang SC_MSFontService,sans-serif" font-style="normal" font-variant="normal" font-weight="600" font-stretch="normal" font-size="73" text-anchor="start" direction="ltr" writing-mode="lr-tb" unicode-bidi="normal" text-decoration="none" transform="matrix(1 0 0 1 1686.44 1833)">公钥</text><text fill="#7F7F7F" fill-opacity="1" font-family="PingFang SC,PingFang SC_MSFontService,sans-serif" font-style="normal" font-variant="normal" font-weight="600" font-stretch="normal" font-size="73" text-anchor="start" direction="ltr" writing-mode="lr-tb" unicode-bidi="normal" text-decoration="none" transform="matrix(1 0 0 1 1100.85 1853)">上传</text><text fill="#7F7F7F" fill-opacity="1" font-family="PingFang SC,PingFang SC_MSFontService,sans-serif" font-style="normal" font-variant="normal" font-weight="600" font-stretch="normal" font-size="73" text-anchor="start" direction="ltr" writing-mode="lr-tb" unicode-bidi="normal" text-decoration="none" transform="matrix(1 0 0 1 125.594 2145)">~/.</text><text fill="#7F7F7F" fill-opacity="1" font-family="PingFang SC,PingFang SC_MSFontService,sans-serif" font-style="normal" font-variant="normal" font-weight="600" font-stretch="normal" font-size="73" text-anchor="start" direction="ltr" writing-mode="lr-tb" unicode-bidi="normal" text-decoration="none" transform="matrix(1 0 0 1 218.979 2145)">ssh</text><text fill="#7F7F7F" fill-opacity="1" font-family="PingFang SC,PingFang SC_MSFontService,sans-serif" font-style="normal" font-variant="normal" font-weight="600" font-stretch="normal" font-size="73" text-anchor="start" direction="ltr" writing-mode="lr-tb" unicode-bidi="normal" text-decoration="none" transform="matrix(1 0 0 1 338.146 2145)">/</text><text fill="#7F7F7F" fill-opacity="1" font-family="PingFang SC,PingFang SC_MSFontService,sans-serif" font-style="normal" font-variant="normal" font-weight="600" font-stretch="normal" font-size="73" text-anchor="start" direction="ltr" writing-mode="lr-tb" unicode-bidi="normal" text-decoration="none" transform="matrix(1 0 0 1 374.813 2145)">id_rsa_local</text><text fill="#7F7F7F" fill-opacity="1" font-family="PingFang SC,PingFang SC_MSFontService,sans-serif" font-style="normal" font-variant="normal" font-weight="600" font-stretch="normal" font-size="73" text-anchor="start" direction="ltr" writing-mode="lr-tb" unicode-bidi="normal" text-decoration="none" transform="matrix(1 0 0 1 216.672 2057)">私钥</text><path d="M1033 776.125 2723.62 776.125 2723.62 789.875 1033 789.875ZM2716.75 762.375 2758 783 2716.75 803.625Z" fill="#A6A6A6" fill-rule="nonzero" fill-opacity="1"/><text fill="#7F7F7F" fill-opacity="1" font-family="PingFang SC,PingFang SC_MSFontService,sans-serif" font-style="normal" font-variant="normal" font-weight="600" font-stretch="normal" font-size="73" text-anchor="start" direction="ltr" writing-mode="lr-tb" unicode-bidi="normal" text-decoration="none" transform="matrix(1 0 0 1 1100.85 761)">上传</text><text fill="#7F7F7F" fill-opacity="1" font-family="PingFang SC,PingFang SC_MSFontService,sans-serif" font-style="normal" font-variant="normal" font-weight="600" font-stretch="normal" font-size="73" text-anchor="start" direction="ltr" writing-mode="lr-tb" unicode-bidi="normal" text-decoration="none" transform="matrix(1 0 0 1 123.345 807)">~/.</text><text fill="#7F7F7F" fill-opacity="1" font-family="PingFang SC,PingFang SC_MSFontService,sans-serif" font-style="normal" font-variant="normal" font-weight="600" font-stretch="normal" font-size="73" text-anchor="start" direction="ltr" writing-mode="lr-tb" unicode-bidi="normal" text-decoration="none" transform="matrix(1 0 0 1 216.731 807)">ssh</text><text fill="#7F7F7F" fill-opacity="1" font-family="PingFang SC,PingFang SC_MSFontService,sans-serif" font-style="normal" font-variant="normal" font-weight="600" font-stretch="normal" font-size="73" text-anchor="start" direction="ltr" writing-mode="lr-tb" unicode-bidi="normal" text-decoration="none" transform="matrix(1 0 0 1 335.898 807)">/</text><text fill="#7F7F7F" fill-opacity="1" font-family="PingFang SC,PingFang SC_MSFontService,sans-serif" font-style="normal" font-variant="normal" font-weight="600" font-stretch="normal" font-size="73" text-anchor="start" direction="ltr" writing-mode="lr-tb" unicode-bidi="normal" text-decoration="none" transform="matrix(1 0 0 1 372.564 807)">id_rsa_server.pub</text><text fill="#7F7F7F" fill-opacity="1" font-family="PingFang SC,PingFang SC_MSFontService,sans-serif" font-style="normal" font-variant="normal" font-weight="600" font-stretch="normal" font-size="73" text-anchor="start" direction="ltr" writing-mode="lr-tb" unicode-bidi="normal" text-decoration="none" transform="matrix(1 0 0 1 214.423 720)">公钥</text><rect x="98.5002" y="1740.5" width="976" height="453" stroke="#A6A6A6" stroke-width="4.58333" stroke-linecap="butt" stroke-linejoin="miter" stroke-miterlimit="8" stroke-dasharray="18.3333 13.75" stroke-opacity="1" fill="none"/><rect x="98.5002" y="595.5" width="976" height="452" stroke="#A6A6A6" stroke-width="4.58333" stroke-linecap="butt" stroke-linejoin="miter" stroke-miterlimit="8" stroke-dasharray="18.3333 13.75" stroke-opacity="1" fill="none"/><g><g><g><path d="M63.3781 80.4312 21.6856 80.4312C12.2187 80.4312 4.54749 72.7599 4.54749 63.293L4.54749 21.6006C4.54749 12.1337 12.2187 4.46249 21.6856 4.46249L63.3781 4.46249C72.8449 4.46249 80.5162 12.1337 80.5162 21.6006L80.5162 63.293C80.5162 72.7599 72.8449 80.4312 63.3781 80.4312Z" fill="#89898E" fill-rule="nonzero" fill-opacity="1" transform="matrix(1.01177 0 0 1 122 652)"/><path d="M55.7281 30.3343C55.7281 22.9818 49.7249 17.0425 42.3193 17.1381 35.5937 17.2337 29.8137 22.6737 29.3462 29.3781 28.8893 35.9443 33.1925 41.5437 39.1425 43.0843L39.1531 43.0843 39.1531 61.6887C39.1531 62.1137 39.3125 62.5174 39.5993 62.8362L43.3818 66.9799C43.7537 67.3943 44.4018 67.3943 44.7737 66.9799L50.2243 61.0299C50.6068 60.6156 50.5856 59.9781 50.1924 59.5849L47.4087 56.8012C46.9731 56.3656 46.9731 55.6431 47.4087 55.2074L50.4049 52.2112C50.9893 51.6268 50.9893 50.6918 50.4049 50.1181L46.8031 46.5162C46.4524 46.1656 46.2612 45.6981 46.2612 45.2093L46.2612 43.0206C51.7331 41.4162 55.7281 36.3481 55.7281 30.3343ZM42.5212 24.4375C44.3912 24.4375 45.9106 25.9462 45.9106 27.8056 45.9106 29.6756 44.3912 31.1737 42.5212 31.1737 40.6725 31.1737 39.1531 29.665 39.1531 27.8056 39.1531 25.9356 40.6725 24.4375 42.5212 24.4375Z" fill="#FFFFFF" fill-rule="nonzero" fill-opacity="1" transform="matrix(1.01177 0 0 1 122 652)"/></g></g></g><path d="M186.629 938 144.371 938C134.775 938 127 930.225 127 920.629L127 878.371C127 868.775 134.775 861 144.371 861L186.629 861C196.225 861 204 868.775 204 878.371L204 920.629C204 930.225 196.225 938 186.629 938Z" fill="#FFC139" fill-rule="evenodd" fill-opacity="1"/><path d="M179 887.157C179 879.827 172.864 873.906 165.295 874.001 158.42 874.097 152.512 879.52 152.034 886.204 151.567 892.75 155.966 898.332 162.047 899.868L162.058 899.868 162.058 918.415C162.058 918.839 162.221 919.241 162.514 919.559L166.381 923.69C166.761 924.104 167.423 924.104 167.803 923.69L173.375 917.759C173.766 917.345 173.744 916.71 173.342 916.318L170.497 913.543C170.052 913.109 170.052 912.388 170.497 911.954L173.559 908.967C174.157 908.384 174.157 907.452 173.559 906.88L169.878 903.289C169.519 902.94 169.324 902.474 169.324 901.987L169.324 899.805C174.917 898.205 179 893.152 179 887.157ZM165.501 881.278C167.412 881.278 168.965 882.783 168.965 884.636 168.965 886.5 167.412 887.994 165.501 887.994 163.611 887.994 162.058 886.49 162.058 884.636 162.058 882.772 163.611 881.278 165.501 881.278Z" fill="#FFFFFF" fill-rule="evenodd" fill-opacity="1"/><g><g><g><path d="M186.124 1846.38 143.941 1846.38C134.363 1846.38 126.601 1838.62 126.601 1829.04L126.601 1786.85C126.601 1777.28 134.363 1769.52 143.941 1769.52L186.124 1769.52C195.702 1769.52 203.463 1777.28 203.463 1786.85L203.463 1829.04C203.463 1838.62 195.702 1846.38 186.124 1846.38Z" fill="#89898E" fill-rule="nonzero" fill-opacity="1"/><path d="M178.384 1795.69C178.384 1788.25 172.31 1782.24 164.817 1782.34 158.012 1782.44 152.165 1787.94 151.692 1794.72 151.229 1801.37 155.583 1807.03 161.603 1808.59L161.614 1808.59 161.614 1827.41C161.614 1827.84 161.775 1828.25 162.065 1828.58L165.892 1832.77C166.268 1833.19 166.924 1833.19 167.3 1832.77L172.815 1826.75C173.202 1826.33 173.181 1825.68 172.783 1825.29L169.966 1822.47C169.526 1822.03 169.526 1821.3 169.966 1820.86L172.998 1817.83C173.589 1817.23 173.589 1816.29 172.998 1815.71L169.354 1812.06C168.999 1811.71 168.805 1811.24 168.805 1810.74L168.805 1808.53C174.342 1806.9 178.384 1801.78 178.384 1795.69ZM165.021 1789.73C166.913 1789.73 168.451 1791.25 168.451 1793.13 168.451 1795.02 166.913 1796.54 165.021 1796.54 163.151 1796.54 161.614 1795.01 161.614 1793.13 161.614 1791.24 163.151 1789.73 165.021 1789.73Z" fill="#FFFFFF" fill-rule="nonzero" fill-opacity="1"/></g></g></g><path d="M186.629 2072 144.371 2072C134.775 2072 127 2064.22 127 2054.63L127 2012.37C127 2002.78 134.775 1995 144.371 1995L186.629 1995C196.225 1995 204 2002.78 204 2012.37L204 2054.63C204 2064.22 196.225 2072 186.629 2072Z" fill="#FFC139" fill-rule="evenodd" fill-opacity="1"/><path d="M179 2021.42C179 2013.94 172.864 2007.9 165.295 2008 158.42 2008.1 152.512 2013.63 152.034 2020.45 151.567 2027.12 155.966 2032.82 162.047 2034.39L162.058 2034.39 162.058 2053.3C162.058 2053.74 162.221 2054.15 162.514 2054.47L166.381 2058.68C166.761 2059.11 167.423 2059.11 167.803 2058.68L173.375 2052.63C173.766 2052.21 173.744 2051.56 173.342 2051.16L170.497 2048.33C170.052 2047.89 170.052 2047.16 170.497 2046.71L173.559 2043.67C174.157 2043.07 174.157 2042.12 173.559 2041.54L169.878 2037.88C169.519 2037.52 169.324 2037.04 169.324 2036.55L169.324 2034.32C174.917 2032.69 179 2027.54 179 2021.42ZM165.501 2015.42C167.412 2015.42 168.965 2016.96 168.965 2018.85 168.965 2020.75 167.412 2022.27 165.501 2022.27 163.611 2022.27 162.058 2020.74 162.058 2018.85 162.058 2016.95 163.611 2015.42 165.501 2015.42Z" fill="#FFFFFF" fill-rule="evenodd" fill-opacity="1"/><g><g><g><path d="M63.3781 80.4312 21.6856 80.4312C12.2187 80.4312 4.54749 72.7599 4.54749 63.293L4.54749 21.6006C4.54749 12.1337 12.2187 4.46249 21.6856 4.46249L63.3781 4.46249C72.8449 4.46249 80.5162 12.1337 80.5162 21.6006L80.5162 63.293C80.5162 72.7599 72.8449 80.4312 63.3781 80.4312Z" fill="#89898E" fill-rule="nonzero" fill-opacity="1" transform="matrix(1 0 0 1.01177 1594 1765)"/><path d="M55.7281 30.3343C55.7281 22.9818 49.7249 17.0425 42.3193 17.1381 35.5937 17.2337 29.8137 22.6737 29.3462 29.3781 28.8893 35.9443 33.1925 41.5437 39.1425 43.0843L39.1531 43.0843 39.1531 61.6887C39.1531 62.1137 39.3125 62.5174 39.5993 62.8362L43.3818 66.9799C43.7537 67.3943 44.4018 67.3943 44.7737 66.9799L50.2243 61.0299C50.6068 60.6156 50.5856 59.9781 50.1924 59.5849L47.4087 56.8012C46.9731 56.3656 46.9731 55.6431 47.4087 55.2074L50.4049 52.2112C50.9893 51.6268 50.9893 50.6918 50.4049 50.1181L46.8031 46.5162C46.4524 46.1656 46.2612 45.6981 46.2612 45.2093L46.2612 43.0206C51.7331 41.4162 55.7281 36.3481 55.7281 30.3343ZM42.5212 24.4375C44.3912 24.4375 45.9106 25.9462 45.9106 27.8056 45.9106 29.6756 44.3912 31.1737 42.5212 31.1737 40.6725 31.1737 39.1531 29.665 39.1531 27.8056 39.1531 25.9356 40.6725 24.4375 42.5212 24.4375Z" fill="#FFFFFF" fill-rule="nonzero" fill-opacity="1" transform="matrix(1 0 0 1.01177 1594 1765)"/></g></g></g><g><g><g><path d="M2865.38 732.431 2823.69 732.431C2814.22 732.431 2806.55 724.76 2806.55 715.293L2806.55 673.601C2806.55 664.134 2814.22 656.463 2823.69 656.463L2865.38 656.463C2874.85 656.463 2882.52 664.134 2882.52 673.601L2882.52 715.293C2882.52 724.76 2874.85 732.431 2865.38 732.431Z" fill="#89898E" fill-rule="nonzero" fill-opacity="1"/><path d="M2857.73 682.334C2857.73 674.982 2851.73 669.043 2844.32 669.138 2837.59 669.234 2831.81 674.674 2831.35 681.378 2830.89 687.944 2835.19 693.544 2841.14 695.084L2841.15 695.084 2841.15 713.689C2841.15 714.114 2841.31 714.518 2841.6 714.836L2845.38 718.98C2845.75 719.394 2846.4 719.394 2846.77 718.98L2852.22 713.03C2852.61 712.616 2852.59 711.978 2852.19 711.585L2849.41 708.801C2848.97 708.366 2848.97 707.643 2849.41 707.208L2852.41 704.211C2852.99 703.627 2852.99 702.692 2852.41 702.118L2848.8 698.516C2848.45 698.166 2848.26 697.698 2848.26 697.209L2848.26 695.021C2853.73 693.416 2857.73 688.348 2857.73 682.334ZM2844.52 676.438C2846.39 676.438 2847.91 677.946 2847.91 679.806 2847.91 681.676 2846.39 683.174 2844.52 683.174 2842.67 683.174 2841.15 681.665 2841.15 679.806 2841.15 677.936 2842.67 676.438 2844.52 676.438Z" fill="#FFFFFF" fill-rule="nonzero" fill-opacity="1"/></g></g></g><text fill="#7F7F7F" fill-opacity="1" font-family="PingFang SC,PingFang SC_MSFontService,sans-serif" font-style="normal" font-variant="normal" font-weight="600" font-stretch="normal" font-size="73" text-anchor="start" direction="ltr" writing-mode="lr-tb" unicode-bidi="normal" text-decoration="none" transform="matrix(1 0 0 1 1342.52 1853)">公钥</text><g><g><g><path d="M63.3783 80.4315 21.6857 80.4315C12.2188 80.4315 4.54751 72.7602 4.54751 63.2933L4.54751 21.6007C4.54751 12.1338 12.2188 4.46251 21.6857 4.46251L63.3783 4.46251C72.8452 4.46251 80.5165 12.1338 80.5165 21.6007L80.5165 63.2933C80.5165 72.7602 72.8452 80.4315 63.3783 80.4315Z" fill="#89898E" fill-rule="nonzero" fill-opacity="1" transform="matrix(1 0 0 1.01176 1250 1786)"/><path d="M55.7283 30.3345C55.7283 22.9819 49.7252 17.0426 42.3195 17.1382 35.5939 17.2338 29.8138 22.6738 29.3463 29.3782 28.8895 35.9445 33.1926 41.5439 39.1426 43.0845L39.1532 43.0845 39.1532 61.6889C39.1532 62.1139 39.3126 62.5177 39.5995 62.8364L43.382 66.9802C43.7539 67.3946 44.402 67.3946 44.7739 66.9802L50.2245 61.0302C50.607 60.6158 50.5858 59.9783 50.1927 59.5852L47.4089 56.8014C46.9733 56.3658 46.9733 55.6433 47.4089 55.2077L50.4052 52.2114C50.9895 51.627 50.9895 50.692 50.4052 50.1183L46.8033 46.5164C46.4526 46.1658 46.2614 45.6983 46.2614 45.2095L46.2614 43.0208C51.7333 41.4164 55.7283 36.3482 55.7283 30.3345ZM42.5214 24.4376C44.3914 24.4376 45.9108 25.9463 45.9108 27.8057 45.9108 29.6757 44.3914 31.1738 42.5214 31.1738 40.6726 31.1738 39.1532 29.6651 39.1532 27.8057 39.1532 25.9357 40.6726 24.4376 42.5214 24.4376Z" fill="#FFFFFF" fill-rule="nonzero" fill-opacity="1" transform="matrix(1 0 0 1.01176 1250 1786)"/></g></g></g><text fill="#7F7F7F" fill-opacity="1" font-family="PingFang SC,PingFang SC_MSFontService,sans-serif" font-style="normal" font-variant="normal" font-weight="600" font-stretch="normal" font-size="73" text-anchor="start" direction="ltr" writing-mode="lr-tb" unicode-bidi="normal" text-decoration="none" transform="matrix(1 0 0 1 1342.52 758)">公钥</text><g><g><g><path d="M1313.38 770.431 1271.69 770.431C1262.22 770.431 1254.55 762.76 1254.55 753.293L1254.55 711.601C1254.55 702.134 1262.22 694.462 1271.69 694.462L1313.38 694.462C1322.85 694.462 1330.52 702.134 1330.52 711.601L1330.52 753.293C1330.52 762.76 1322.85 770.431 1313.38 770.431Z" fill="#89898E" fill-rule="nonzero" fill-opacity="1"/><path d="M1305.73 720.334C1305.73 712.982 1299.72 707.042 1292.32 707.138 1285.59 707.234 1279.81 712.674 1279.35 719.378 1278.89 725.944 1283.19 731.544 1289.14 733.084L1289.15 733.084 1289.15 751.689C1289.15 752.114 1289.31 752.518 1289.6 752.836L1293.38 756.98C1293.75 757.394 1294.4 757.394 1294.77 756.98L1300.22 751.03C1300.61 750.616 1300.59 749.978 1300.19 749.585L1297.41 746.801C1296.97 746.366 1296.97 745.643 1297.41 745.208L1300.41 742.211C1300.99 741.627 1300.99 740.692 1300.41 740.118L1296.8 736.516C1296.45 736.166 1296.26 735.698 1296.26 735.209L1296.26 733.021C1301.73 731.416 1305.73 726.348 1305.73 720.334ZM1292.52 714.437C1294.39 714.437 1295.91 715.946 1295.91 717.806 1295.91 719.676 1294.39 721.174 1292.52 721.174 1290.67 721.174 1289.15 719.665 1289.15 717.806 1289.15 715.936 1290.67 714.437 1292.52 714.437Z" fill="#FFFFFF" fill-rule="nonzero" fill-opacity="1"/></g></g></g></g></g></svg>